# xmcd CD database file
#
# Track frame offsets:
#	150
#	17350
#	39605
#	54120
#	67805
#	83115
#	104697
#	123552
#	140880
#	152375
#	166742
#	181217
#
# Disc length: 2676 seconds
#
# Revision: 0
# Processed by: cddbd v1.5PL3 Copyright (c) Steve Scherf et al.
# Submitted via: CDex 1.50
#
DISCID=900a720c
DTITLE=Network Music - Personal Best
DYEAR=1997
DGENRE=New Age
TTITLE0=Noble Deeds
TTITLE1=Run For Glory
TTITLE2=Full Potential
TTITLE3=Courage
TTITLE4=Against All Odds
TTITLE5=Coming Of Age
TTITLE6=The Quest
TTITLE7=Winds Of Desire
TTITLE8=Freedom Flight
TTITLE9=Undaunted
TTITLE10=Call To Greatness
TTITLE11=The Finale
EXTD=YEAR: 1997
EXTT0=
EXTT1=
EXTT2=
EXTT3=
EXTT4=
EXTT5=
EXTT6=
EXTT7=
EXTT8=
EXTT9=
EXTT10=
EXTT11=
PLAYORDER=
